<svg width="95" height="155" viewBox="0 0 95 155" fill="none" xmlns="http://www.w3.org/2000/svg">
<g opacity="0.4">
<path d="M65.8618 67.2271H-34.8567V68.4261H65.8618V67.2271Z" fill="#A30C33"/>
<path d="M-39.6496 62.4321H-40.8486V55.2379C-40.8486 55.058 -40.7887 54.9381 -40.6688 54.8182L-3.97849 18.2478C-3.85858 18.1279 -3.73867 18.068 -3.55882 18.068H29.8941V19.267H-3.31902L-39.6496 55.4777V62.4321Z" fill="#A30C33"/>
<path d="M47.28 122.983H2.31642C2.13657 122.983 2.01666 122.923 1.89676 122.803L-40.6688 80.2376C-40.7887 80.1177 -40.8486 79.9978 -40.8486 79.8179V73.8228H-39.6496V79.5781L2.55622 121.784H47.28V122.983Z" fill="#A30C33"/>
<path d="M17.3018 84.6139H-6.79873C-6.97858 84.6139 -7.09848 84.5539 -7.21838 84.434L-23.4053 68.367L-22.566 67.5277L-6.55891 83.4148H17.3018V84.6139Z" fill="#A30C33"/>
<path d="M0.63621 68.3067L-0.203125 67.4673L15.9238 51.2205C16.0437 51.1006 16.1636 51.0406 16.3435 51.0406H40.6838V52.2397H16.5833L0.63621 68.3067Z" fill="#A30C33"/>
<path d="M92.2391 37.8515L-2.96383 37.8515C-3.14368 37.8515 -3.26359 37.7916 -3.38349 37.6717L-12.9158 28.0195L-12.0765 27.1802L-2.72403 36.6525L92.2391 36.6525V37.8515Z" fill="#A30C33"/>
<path d="M7.34908 19.088L6.50977 18.2487L22.0971 2.6613C22.217 2.5414 22.337 2.48145 22.5168 2.48145L72.4564 2.48145V3.68047L22.7566 3.68047L7.34908 19.088Z" fill="#A30C33"/>
<path d="M17.0622 152.36L-7.09823 128.199C-7.21813 128.079 -7.27808 127.96 -7.27808 127.78L-7.27808 113.391H-6.07905L-6.07905 127.54L17.9015 151.52L17.0622 152.36Z" fill="#A30C33"/>
<path d="M11.6069 122.622L10.7676 121.783L26.6547 105.776C26.7746 105.656 26.8945 105.596 27.0744 105.596H87.4455V106.795H27.3741L11.6069 122.622Z" fill="#A30C33"/>
<path d="M67.6618 139.77H40.8035C40.6237 139.77 40.5038 139.71 40.3839 139.59L23.4775 122.684L24.3169 121.844L41.0433 138.571H67.6618V139.77Z" fill="#A30C33"/>
<path d="M72.4589 5.83731C73.982 5.83731 75.2167 4.60262 75.2167 3.07954C75.2167 1.55647 73.982 0.321777 72.4589 0.321777C70.9359 0.321777 69.7012 1.55647 69.7012 3.07954C69.7012 4.60262 70.9359 5.83731 72.4589 5.83731Z" fill="#A30C33"/>
<path d="M35.2885 25.0217C31.8113 25.0217 28.9336 22.204 28.9336 18.6669C28.9336 15.1297 31.7513 12.312 35.2885 12.312C38.8256 12.312 41.6433 15.1297 41.6433 18.6669C41.6433 22.204 38.7656 25.0217 35.2885 25.0217ZM35.2885 13.511C32.4707 13.511 30.1326 15.8491 30.1326 18.6669C30.1326 21.4846 32.4707 23.8227 35.2885 23.8227C38.1062 23.8227 40.4443 21.4846 40.4443 18.6669C40.4443 15.8491 38.1062 13.511 35.2885 13.511Z" fill="#A30C33"/>
<path d="M35.2863 21.4239C36.8094 21.4239 38.0441 20.1892 38.0441 18.6661C38.0441 17.143 36.8094 15.9083 35.2863 15.9083C33.7633 15.9083 32.5286 17.143 32.5286 18.6661C32.5286 20.1892 33.7633 21.4239 35.2863 21.4239Z" fill="#A30C33"/>
<path d="M94.9989 37.3721C94.9989 38.8709 93.74 40.1299 92.2412 40.1299C90.7424 40.1299 89.4834 38.8709 89.4834 37.3721C89.4834 35.8734 90.7424 34.6144 92.2412 34.6144C93.74 34.6144 94.9989 35.8134 94.9989 37.3721Z" fill="#A30C33"/>
<path d="M40.6826 54.3982C42.2056 54.3982 43.4403 53.1635 43.4403 51.6405C43.4403 50.1174 42.2056 48.8827 40.6826 48.8827C39.1595 48.8827 37.9248 50.1174 37.9248 51.6405C37.9248 53.1635 39.1595 54.3982 40.6826 54.3982Z" fill="#A30C33"/>
<path d="M71.2582 74.1825C67.781 74.1825 64.9033 71.3648 64.9033 67.8276C64.9033 64.2905 67.721 61.4728 71.2582 61.4728C74.7953 61.4728 77.613 64.2905 77.613 67.8276C77.613 71.3648 74.7354 74.1825 71.2582 74.1825ZM71.2582 62.6718C68.4405 62.6718 66.1023 65.0099 66.1023 67.8276C66.1023 70.6454 68.4405 72.9835 71.2582 72.9835C74.0759 72.9835 76.414 70.6454 76.414 67.8276C76.414 65.0099 74.0759 62.6718 71.2582 62.6718Z" fill="#A30C33"/>
<path d="M71.2558 70.5845C72.7789 70.5845 74.0136 69.3498 74.0136 67.8267C74.0136 66.3037 72.7789 65.069 71.2558 65.069C69.7327 65.069 68.498 66.3037 68.498 67.8267C68.498 69.3498 69.7327 70.5845 71.2558 70.5845Z" fill="#A30C33"/>
<path d="M17.2988 86.7725C18.8219 86.7725 20.0566 85.5378 20.0566 84.0147C20.0566 82.4917 18.8219 81.257 17.2988 81.257C15.7757 81.257 14.541 82.4917 14.541 84.0147C14.541 85.5378 15.7757 86.7725 17.2988 86.7725Z" fill="#A30C33"/>
<path d="M87.4462 108.955C88.9693 108.955 90.204 107.72 90.204 106.197C90.204 104.674 88.9693 103.439 87.4462 103.439C85.9232 103.439 84.6885 104.674 84.6885 106.197C84.6885 107.72 85.9232 108.955 87.4462 108.955Z" fill="#A30C33"/>
<path d="M52.6732 128.619C49.196 128.619 46.3184 125.801 46.3184 122.264C46.3184 118.727 49.1361 115.909 52.6732 115.909C56.2104 115.909 59.0281 118.727 59.0281 122.264C59.0281 125.801 56.1504 128.619 52.6732 128.619ZM52.6732 117.108C49.8555 117.108 47.5174 119.447 47.5174 122.264C47.5174 125.082 49.8555 127.42 52.6732 127.42C55.4909 127.42 57.829 125.082 57.829 122.264C57.829 119.447 55.4909 117.108 52.6732 117.108Z" fill="#A30C33"/>
<path d="M55.4303 122.263C55.4303 123.762 54.1714 125.021 52.6726 125.021C51.1738 125.021 49.9148 123.762 49.9148 122.263C49.9148 120.765 51.1738 119.506 52.6726 119.506C54.1714 119.506 55.4303 120.765 55.4303 122.263Z" fill="#A30C33"/>
<path d="M67.6611 141.927C69.1842 141.927 70.4189 140.693 70.4189 139.17C70.4189 137.647 69.1842 136.412 67.6611 136.412C66.138 136.412 64.9033 137.647 64.9033 139.17C64.9033 140.693 66.138 141.927 67.6611 141.927Z" fill="#A30C33"/>
<path d="M20.2421 151.939C20.2421 153.438 18.9831 154.697 17.4843 154.697C15.9855 154.697 14.7266 153.438 14.7266 151.939C14.7266 150.44 15.9855 149.181 17.4843 149.181C19.0431 149.241 20.2421 150.44 20.2421 151.939Z" fill="#A30C33"/>
<g opacity="0.4">
<path d="M65.866 67.2271H-36.0515V68.4261H65.866V67.2271Z" fill="black"/>
<path d="M-39.6494 62.4321H-40.8484V55.2379C-40.8484 55.058 -40.7884 54.9381 -40.6685 54.8182L-3.97824 18.2478C-3.85834 18.1279 -3.73843 18.068 -3.55857 18.068H29.8943V19.267H-3.31877L-39.6494 55.4777V62.4321Z" fill="black"/>
<path d="M47.2803 122.983H2.31667C2.13681 122.983 2.0169 122.923 1.897 122.803L-40.6685 80.2376C-40.7884 80.1177 -40.8484 79.9978 -40.8484 79.8179V73.8228H-39.6494V79.5781L2.55647 121.784H47.2803V122.983Z" fill="black"/>
<path d="M17.304 84.6139H-6.79653C-6.97639 84.6139 -7.09628 84.5539 -7.21618 84.434L-23.4031 68.367L-22.5638 67.5277L-6.55671 83.4148H17.304V84.6139Z" fill="black"/>
<path d="M0.637187 68.3067L-0.202148 67.4673L15.9248 51.2205C16.0447 51.1006 16.1646 51.0406 16.3445 51.0406H40.6848V52.2397H16.5843L0.637187 68.3067Z" fill="black"/>
<path d="M92.243 37.8515L-2.95992 37.8515C-3.13978 37.8515 -3.25969 37.7916 -3.37959 37.6717L-12.9119 28.0195L-12.0725 27.1802L-2.72012 36.6525L92.243 36.6525V37.8515Z" fill="black"/>
<path d="M7.35323 19.088L6.51392 18.2487L22.1013 2.6613C22.2212 2.5414 22.3411 2.48145 22.521 2.48145L72.4605 2.48145V3.68047L22.7608 3.68047L7.35323 19.088Z" fill="black"/>
<path d="M17.0642 152.36L-7.09628 128.199C-7.21618 128.079 -7.27612 127.96 -7.27612 127.78L-7.27612 113.391H-6.07709L-6.07709 127.54L17.9035 151.52L17.0642 152.36Z" fill="black"/>
<path d="M11.6071 122.622L10.7678 121.783L26.655 105.776C26.7749 105.656 26.8948 105.596 27.0746 105.596H87.4457V106.795H27.3744L11.6071 122.622Z" fill="black"/>
<path d="M67.662 139.77H40.8038C40.6239 139.77 40.504 139.71 40.3841 139.59L23.4778 122.684L24.3171 121.844L41.0436 138.571H67.662V139.77Z" fill="black"/>
<path d="M72.4592 5.83731C73.9823 5.83731 75.217 4.60262 75.217 3.07954C75.217 1.55647 73.9823 0.321777 72.4592 0.321777C70.9361 0.321777 69.7014 1.55647 69.7014 3.07954C69.7014 4.60262 70.9361 5.83731 72.4592 5.83731Z" fill="black"/>
<path d="M35.2877 25.0217C31.8105 25.0217 28.9329 22.204 28.9329 18.6669C28.9329 15.1297 31.7506 12.312 35.2877 12.312C38.8249 12.312 41.6426 15.1297 41.6426 18.6669C41.6426 22.204 38.7649 25.0217 35.2877 25.0217ZM35.2877 13.511C32.47 13.511 30.1319 15.8491 30.1319 18.6669C30.1319 21.4846 32.47 23.8227 35.2877 23.8227C38.1054 23.8227 40.4436 21.4846 40.4436 18.6669C40.4436 15.8491 38.1054 13.511 35.2877 13.511Z" fill="black"/>
<path d="M95.0011 37.3721C95.0011 38.8709 93.7422 40.1299 92.2434 40.1299C90.7446 40.1299 89.4856 38.8709 89.4856 37.3721C89.4856 35.8734 90.7446 34.6144 92.2434 34.6144C93.7422 34.6144 95.0011 35.8134 95.0011 37.3721Z" fill="black"/>
<path d="M40.6828 54.3982C42.2059 54.3982 43.4406 53.1635 43.4406 51.6405C43.4406 50.1174 42.2059 48.8827 40.6828 48.8827C39.1597 48.8827 37.925 50.1174 37.925 51.6405C37.925 53.1635 39.1597 54.3982 40.6828 54.3982Z" fill="black"/>
<path d="M71.2594 74.1825C67.7822 74.1825 64.9045 71.3648 64.9045 67.8276C64.9045 64.2905 67.7223 61.4728 71.2594 61.4728C74.7965 61.4728 77.6143 64.2905 77.6143 67.8276C77.6143 71.3648 74.7366 74.1825 71.2594 74.1825ZM71.2594 62.6718C68.4417 62.6718 66.1036 65.0099 66.1036 67.8276C66.1036 70.6454 68.4417 72.9835 71.2594 72.9835C74.0771 72.9835 76.4152 70.6454 76.4152 67.8276C76.4152 65.0099 74.0771 62.6718 71.2594 62.6718Z" fill="black"/>
<path d="M17.301 86.7725C18.8241 86.7725 20.0588 85.5378 20.0588 84.0147C20.0588 82.4917 18.8241 81.257 17.301 81.257C15.7779 81.257 14.5432 82.4917 14.5432 84.0147C14.5432 85.5378 15.7779 86.7725 17.301 86.7725Z" fill="black"/>
<path d="M87.4465 108.955C88.9696 108.955 90.2043 107.72 90.2043 106.197C90.2043 104.674 88.9696 103.439 87.4465 103.439C85.9234 103.439 84.6887 104.674 84.6887 106.197C84.6887 107.72 85.9234 108.955 87.4465 108.955Z" fill="black"/>
<path d="M52.6754 128.619C49.1982 128.619 46.3206 125.801 46.3206 122.264C46.3206 118.727 49.1383 115.909 52.6754 115.909C56.2126 115.909 59.0303 118.727 59.0303 122.264C59.0303 125.801 56.1526 128.619 52.6754 128.619ZM52.6754 117.108C49.8577 117.108 47.5196 119.447 47.5196 122.264C47.5196 125.082 49.8577 127.42 52.6754 127.42C55.4931 127.42 57.8312 125.082 57.8312 122.264C57.8312 119.447 55.4931 117.108 52.6754 117.108Z" fill="black"/>
<path d="M67.6623 141.927C69.1854 141.927 70.4201 140.693 70.4201 139.17C70.4201 137.647 69.1854 136.412 67.6623 136.412C66.1392 136.412 64.9045 137.647 64.9045 139.17C64.9045 140.693 66.1392 141.927 67.6623 141.927Z" fill="black"/>
<path d="M20.2423 151.939C20.2423 153.438 18.9833 154.697 17.4846 154.697C15.9858 154.697 14.7268 153.438 14.7268 151.939C14.7268 150.44 15.9858 149.181 17.4846 149.181C19.0433 149.241 20.2423 150.44 20.2423 151.939Z" fill="black"/>
</g>
</g>
</svg>
