<svg width="108" height="154" viewBox="0 0 108 154" fill="none" xmlns="http://www.w3.org/2000/svg">
<g opacity="0.4">
<path d="M29.0275 87.1375L129.363 87.1375L129.363 85.943L29.0275 85.943L29.0275 87.1375Z" fill="#A30C33"/>
<path d="M134.139 91.9142L135.334 91.9142L135.334 99.081C135.334 99.2602 135.274 99.3797 135.155 99.4991L98.6037 135.931C98.4842 136.05 98.3648 136.11 98.1856 136.11L64.8598 136.11L64.8598 134.915L97.9467 134.915L134.139 98.8421L134.139 91.9142Z" fill="#A30C33"/>
<path d="M47.5399 31.5933L92.3327 31.5933C92.5118 31.5933 92.6313 31.653 92.7507 31.7725L135.155 74.1763C135.274 74.2958 135.334 74.4152 135.334 74.5944L135.334 80.5668L134.139 80.5668L134.139 74.8333L92.0938 32.7878L47.5399 32.7878L47.5399 31.5933Z" fill="#A30C33"/>
<path d="M77.4039 69.8165L101.413 69.8165C101.592 69.8165 101.711 69.8762 101.831 69.9957L117.956 86.0016L117.12 86.8378L101.174 71.011L77.4039 71.011L77.4039 69.8165Z" fill="#A30C33"/>
<path d="M94.0054 86.0619L94.8416 86.898L78.7759 103.083C78.6564 103.203 78.537 103.262 78.3578 103.262L54.11 103.262L54.11 102.068L78.1189 102.068L94.0054 86.0619Z" fill="#A30C33"/>
<path d="M2.75048 116.401L97.5917 116.401C97.7709 116.401 97.8903 116.461 98.0098 116.58L107.506 126.196L106.67 127.032L97.3528 117.596L2.75048 117.596L2.75048 116.401Z" fill="#A30C33"/>
<path d="M87.3182 135.095L88.1543 135.931L72.6261 151.46C72.5067 151.579 72.3872 151.639 72.2081 151.639L22.4582 151.639L22.4582 150.444L71.9692 150.444L87.3182 135.095Z" fill="#A30C33"/>
<path d="M77.6418 2.32803L101.71 26.3967C101.83 26.5161 101.89 26.6356 101.89 26.8147L101.89 41.1484L100.695 41.1484L100.695 27.0536L76.8057 3.16416L77.6418 2.32803Z" fill="#A30C33"/>
<path d="M83.0779 31.953L83.9141 32.7891L68.0873 48.7354C67.9678 48.8548 67.8484 48.9146 67.6692 48.9146L7.52744 48.9146L7.52744 47.7201L67.3706 47.7201L83.0779 31.953Z" fill="#A30C33"/>
<path d="M27.2356 14.87L53.9918 14.87C54.171 14.87 54.2904 14.9297 54.4099 15.0492L71.252 31.8913L70.4158 32.7274L53.7529 16.0645L27.2356 16.0645L27.2356 14.87Z" fill="#A30C33"/>
<path d="M22.4558 148.294C20.9385 148.294 19.7085 149.524 19.7085 151.041C19.7085 152.558 20.9385 153.788 22.4558 153.788C23.9731 153.788 25.2031 152.558 25.2031 151.041C25.2031 149.524 23.9731 148.294 22.4558 148.294Z" fill="#A30C33"/>
<path d="M59.485 129.182C62.9489 129.182 65.8157 131.989 65.8157 135.513C65.8157 139.037 63.0087 141.844 59.485 141.844C55.9613 141.844 53.1542 139.037 53.1542 135.513C53.1542 131.989 56.021 129.182 59.485 129.182ZM59.485 140.649C62.292 140.649 64.6212 138.32 64.6212 135.513C64.6212 132.706 62.292 130.377 59.485 130.377C56.6779 130.377 54.3487 132.706 54.3487 135.513C54.3487 138.32 56.6779 140.649 59.485 140.649Z" fill="#A30C33"/>
<path d="M59.4871 132.767C57.9698 132.767 56.7398 133.997 56.7398 135.514C56.7398 137.031 57.9698 138.261 59.4871 138.261C61.0044 138.261 62.2344 137.031 62.2344 135.514C62.2344 133.997 61.0044 132.767 59.4871 132.767Z" fill="#A30C33"/>
<path d="M0.00150418 116.879C0.00150405 115.386 1.25571 114.132 2.7488 114.132C4.24189 114.132 5.49609 115.386 5.49609 116.879C5.49609 118.372 4.24189 119.626 2.7488 119.626C1.25571 119.626 0.00150432 118.432 0.00150418 116.879Z" fill="#A30C33"/>
<path d="M54.1121 99.9175C52.5948 99.9175 51.3648 101.148 51.3648 102.665C51.3648 104.182 52.5948 105.412 54.1121 105.412C55.6294 105.412 56.8594 104.182 56.8594 102.665C56.8594 101.148 55.6294 99.9175 54.1121 99.9175Z" fill="#A30C33"/>
<path d="M23.6517 80.2083C27.1157 80.2083 29.9824 83.0153 29.9824 86.539C29.9824 90.0627 27.1754 92.8698 23.6517 92.8698C20.128 92.8698 17.321 90.0627 17.321 86.539C17.321 83.0153 20.1877 80.2083 23.6517 80.2083ZM23.6517 91.6753C26.4587 91.6753 28.7879 89.346 28.7879 86.539C28.7879 83.732 26.4587 81.4028 23.6517 81.4028C20.8447 81.4028 18.5155 83.732 18.5155 86.539C18.5155 89.346 20.8447 91.6753 23.6517 91.6753Z" fill="#A30C33"/>
<path d="M23.6548 83.7926C22.1375 83.7926 20.9075 85.0227 20.9075 86.5399C20.9075 88.0572 22.1375 89.2872 23.6548 89.2872C25.1721 89.2872 26.4021 88.0572 26.4021 86.5399C26.4021 85.0226 25.1721 83.7926 23.6548 83.7926Z" fill="#A30C33"/>
<path d="M77.406 67.6663C75.8887 67.6663 74.6587 68.8963 74.6587 70.4136C74.6587 71.9309 75.8887 73.1609 77.406 73.1609C78.9233 73.1609 80.1533 71.9309 80.1533 70.4136C80.1533 68.8963 78.9233 67.6663 77.406 67.6663Z" fill="#A30C33"/>
<path d="M7.52517 45.5683C6.00788 45.5683 4.77787 46.7983 4.77787 48.3156C4.77787 49.8329 6.00788 51.0629 7.52517 51.0629C9.04245 51.0629 10.2725 49.8329 10.2725 48.3156C10.2725 46.7983 9.04245 45.5683 7.52517 45.5683Z" fill="#A30C33"/>
<path d="M42.1661 25.9786C45.6301 25.9786 48.4968 28.7856 48.4968 32.3093C48.4968 35.833 45.6898 38.64 42.1661 38.64C38.6424 38.64 35.8354 35.833 35.8354 32.3093C35.8354 28.7856 38.7021 25.9786 42.1661 25.9786ZM42.1661 37.4455C44.9731 37.4455 47.3024 35.1163 47.3024 32.3093C47.3024 29.5023 44.9731 27.1731 42.1661 27.1731C39.3591 27.1731 37.0299 29.5023 37.0299 32.3093C37.0299 35.1163 39.3591 37.4455 42.1661 37.4455Z" fill="#A30C33"/>
<path d="M39.4195 32.3101C39.4195 30.817 40.6737 29.5628 42.1668 29.5628C43.6599 29.5628 44.9141 30.817 44.9141 32.3101C44.9141 33.8032 43.6599 35.0574 42.1668 35.0574C40.6737 35.0574 39.4195 33.8032 39.4195 32.3101Z" fill="#A30C33"/>
<path d="M27.2351 12.7207C25.7178 12.7207 24.4878 13.9508 24.4878 15.468C24.4878 16.9853 25.7178 18.2153 27.2351 18.2153C28.7524 18.2153 29.9824 16.9853 29.9824 15.468C29.9824 13.9508 28.7524 12.7207 27.2351 12.7207Z" fill="#A30C33"/>
<path d="M74.4742 2.74735C74.4742 1.25426 75.7284 5.90217e-05 77.2215 5.88911e-05C78.7146 5.87606e-05 79.9687 1.25426 79.9687 2.74735C79.9687 4.24045 78.7146 5.49463 77.2215 5.49463C75.6687 5.43491 74.4742 4.24045 74.4742 2.74735Z" fill="#A30C33"/>
<g opacity="0.4">
<path d="M74.474 87.0852L130.554 87.0852L130.554 85.9954L74.474 85.9954L74.474 87.0852Z" fill="black"/>
<path d="M134.139 91.9142L135.334 91.9142L135.334 99.081C135.334 99.2602 135.274 99.3797 135.155 99.4991L98.6037 135.931C98.4842 136.05 98.3648 136.11 98.1856 136.11L64.8598 136.11L64.8598 134.915L97.9467 134.915L134.139 98.8421L134.139 91.9142Z" fill="black"/>
<path d="M47.5399 31.5933L92.3327 31.5933C92.5118 31.5933 92.6313 31.653 92.7507 31.7725L135.155 74.1763C135.274 74.2958 135.334 74.4152 135.334 74.5944L135.334 80.5668L134.139 80.5668L134.139 74.8333L92.0938 32.7878L47.5399 32.7878L47.5399 31.5933Z" fill="black"/>
<path d="M77.4017 69.8165L101.411 69.8165C101.59 69.8165 101.709 69.8762 101.829 69.9957L117.954 86.0016L117.118 86.8378L101.172 71.011L77.4017 71.011L77.4017 69.8165Z" fill="black"/>
<path d="M94.0047 86.0619L94.8408 86.898L78.7751 103.083C78.6557 103.203 78.5362 103.262 78.3571 103.262L62.2689 103.262L62.2689 102.068L78.1182 102.068L94.0047 86.0619Z" fill="black"/>
<path d="M2.74779 116.401L97.589 116.401C97.7682 116.401 97.8877 116.461 98.0071 116.58L107.503 126.196L106.667 127.032L97.3501 117.596L2.74779 117.596L2.74779 116.401Z" fill="black"/>
<path d="M87.3143 135.095L88.1504 135.931L72.6222 151.46C72.5028 151.579 72.3833 151.639 72.2042 151.639L22.4543 151.639L22.4543 150.444L71.9653 150.444L87.3143 135.095Z" fill="black"/>
<path d="M77.6408 2.32803L101.71 26.3967C101.829 26.5161 101.889 26.6356 101.889 26.8147L101.889 41.1484L100.694 41.1484L100.694 27.0536L76.8047 3.16416L77.6408 2.32803Z" fill="black"/>
<path d="M83.077 31.953L83.9131 32.7891L68.0863 48.7354C67.9669 48.8548 67.8474 48.9146 67.6682 48.9146L7.52647 48.9146L7.52647 47.7201L67.3696 47.7201L83.077 31.953Z" fill="black"/>
<path d="M27.2346 14.87L53.9908 14.87C54.17 14.87 54.2894 14.9297 54.4089 15.0492L71.251 31.8913L70.4148 32.7274L53.7519 16.0645L27.2346 16.0645L27.2346 14.87Z" fill="black"/>
<path d="M22.4558 148.294C20.9385 148.294 19.7085 149.524 19.7085 151.041C19.7085 152.558 20.9385 153.788 22.4558 153.788C23.9731 153.788 25.2031 152.558 25.2031 151.041C25.2031 149.524 23.9731 148.294 22.4558 148.294Z" fill="black"/>
<path d="M59.4867 129.182C62.9506 129.182 65.8174 131.989 65.8174 135.513C65.8174 139.037 63.0104 141.844 59.4867 141.844C55.963 141.844 53.1559 139.037 53.1559 135.513C53.1559 131.989 56.0227 129.182 59.4867 129.182ZM59.4867 140.649C62.2937 140.649 64.6229 138.32 64.6229 135.513C64.6229 132.706 62.2937 130.377 59.4867 130.377C56.6797 130.377 54.3504 132.706 54.3504 135.513C54.3504 138.32 56.6797 140.649 59.4867 140.649Z" fill="black"/>
<path d="M0.000527619 116.879C0.000527488 115.386 1.25473 114.132 2.74782 114.132C4.24092 114.132 5.49512 115.386 5.49512 116.879C5.49512 118.372 4.24092 119.626 2.74782 119.626C1.25473 119.626 0.000527754 118.432 0.000527619 116.879Z" fill="black"/>
<path d="M62.2713 99.9175C60.754 99.9175 59.524 101.148 59.524 102.665C59.524 104.182 60.754 105.412 62.2713 105.412C63.7885 105.412 65.0186 104.182 65.0186 102.665C65.0186 101.148 63.7885 99.9175 62.2713 99.9175Z" fill="black"/>
<path d="M77.405 67.6663C75.8878 67.6663 74.6578 68.8963 74.6578 70.4136C74.6578 71.9309 75.8878 73.1609 77.405 73.1609C78.9223 73.1609 80.1523 71.9309 80.1523 70.4136C80.1523 68.8963 78.9223 67.6663 77.405 67.6663Z" fill="black"/>
<path d="M73.1707 84.0905C71.6534 84.0905 70.4234 85.3205 70.4234 86.8378C70.4234 88.3551 71.6534 89.5851 73.1707 89.5851C74.688 89.5851 75.918 88.3551 75.918 86.8378C75.918 85.3205 74.688 84.0905 73.1707 84.0905Z" fill="black"/>
<path d="M7.52517 45.5683C6.00788 45.5683 4.77787 46.7983 4.77787 48.3156C4.77787 49.8329 6.00788 51.0629 7.52517 51.0629C9.04245 51.0629 10.2725 49.8329 10.2725 48.3156C10.2725 46.7983 9.04245 45.5683 7.52517 45.5683Z" fill="black"/>
<path d="M42.1644 25.9786C45.6284 25.9786 48.4951 28.7856 48.4951 32.3093C48.4951 35.833 45.6881 38.64 42.1644 38.64C38.6407 38.64 35.8337 35.833 35.8337 32.3093C35.8337 28.7856 38.7004 25.9786 42.1644 25.9786ZM42.1644 37.4455C44.9714 37.4455 47.3006 35.1163 47.3006 32.3093C47.3006 29.5023 44.9714 27.1731 42.1644 27.1731C39.3574 27.1731 37.0282 29.5023 37.0282 32.3093C37.0282 35.1163 39.3574 37.4455 42.1644 37.4455Z" fill="black"/>
<path d="M27.2342 12.7207C25.7169 12.7207 24.4869 13.9508 24.4869 15.468C24.4869 16.9853 25.7169 18.2153 27.2342 18.2153C28.7514 18.2153 29.9814 16.9853 29.9814 15.468C29.9814 13.9508 28.7514 12.7207 27.2342 12.7207Z" fill="black"/>
<path d="M74.4742 2.74735C74.4742 1.25426 75.7284 5.90217e-05 77.2215 5.88911e-05C78.7146 5.87606e-05 79.9687 1.25426 79.9687 2.74735C79.9687 4.24045 78.7146 5.49463 77.2215 5.49463C75.6687 5.43491 74.4742 4.24045 74.4742 2.74735Z" fill="black"/>
</g>
</g>
</svg>
